
<svg xmlns="http://www.w3.org/2000/svg" width="1024" height="1024" viewBox="0 0 1024 1024">
  <defs>
    <linearGradient id="bg" x1="0" y1="0" x2="1" y2="1">
      <stop offset="0%" stop-color="#0ea5e9"/>
      <stop offset="100%" stop-color="#1f2937"/>
    </linearGradient>
  </defs>
  <rect width="100%" height="100%" rx="140" fill="url(#bg)"/>
  <g transform="translate(212,220) scale(1.15)">
    <path d="M0,0 L0,480 L160,480 C240,480 300,430 300,360 C300,315 278,275 240,254 C286,235 320,195 320,140 C320,60 260,0 180,0 Z 
             M120,80 L170,80 C210,80 240,110 240,150 C240,190 210,220 170,220 L120,220 Z
             M120,300 L170,300 C210,300 240,330 240,370 C240,410 210,440 170,440 L120,440 Z"
          fill="#ffffff"/>
    <path d="M320,0 L320,480 L480,480 L480,420 L380,420 L380,300 C420,295 470,255 470,190 C470,95 400,0 300,0 Z 
             M380,150 C380,200 345,230 300,230 L300,80 C356,80 380,108 380,150 Z
             M380,300 L460,480 L540,480 L450,300 Z" fill="#fefefe"/>
  </g>
</svg>
